<svg xmlns="http://www.w3.org/2000/svg" viewBox="0 0 293.77 57.48"><defs><style>.cls-1{fill:#fff;}</style></defs><title>logo_w</title><g id="Layer_2" data-name="Layer 2"><g id="Layer_1-2" data-name="Layer 1"><path class="cls-1" d="M39.92,56.72V14a11,11,0,0,1,11-11H82.08a8,8,0,0,1-8,8h-21a5,5,0,0,0-5,5V26.52H78.63a8,8,0,0,1-8,8H48.2V56.72Z"/><path class="cls-1" d="M100,56.72V0h7.9V56.72Z"/><path class="cls-1" d="M175.2,36.56A18.64,18.64,0,0,1,172,47.41a22.1,22.1,0,0,1-9,7.39,33.68,33.68,0,0,1-26.33,0,22,22,0,0,1-9-7.39,18.64,18.64,0,0,1-3.25-10.85,18.64,18.64,0,0,1,3.25-10.85,22,22,0,0,1,9-7.39,33.68,33.68,0,0,1,26.33,0,22.1,22.1,0,0,1,9,7.39A18.64,18.64,0,0,1,175.2,36.56Zm-8,0a11.32,11.32,0,0,0-2.23-7.17,15,15,0,0,0-6.24-4.82,23.63,23.63,0,0,0-17.75,0,15,15,0,0,0-6.28,4.82,11.25,11.25,0,0,0-2.22,7.17,11.12,11.12,0,0,0,2.22,7.09,15.39,15.39,0,0,0,6.28,4.87,23.26,23.26,0,0,0,17.75,0,15.4,15.4,0,0,0,6.24-4.87A11.19,11.19,0,0,0,167.16,36.56Z"/><path class="cls-1" d="M195.13,36.56a12.17,12.17,0,0,0,2.15,7.09A15,15,0,0,0,203,48.56a17.73,17.73,0,0,0,8,1.8,23.52,23.52,0,0,0,9.85-1.88,53.84,53.84,0,0,0,7-3.79l4.29,6A45.35,45.35,0,0,1,223,55.42a33.57,33.57,0,0,1-12.15,2.06,26.42,26.42,0,0,1-12.14-2.75,22,22,0,0,1-8.55-7.52A18.8,18.8,0,0,1,187,36.56a18.77,18.77,0,0,1,3.14-10.69,22,22,0,0,1,8.55-7.47,26.3,26.3,0,0,1,12.14-2.76,35.85,35.85,0,0,1,12.46,2.1,21.59,21.59,0,0,1,8.93,5.79l-4.45,6.21a23,23,0,0,0-4.67-3.53,26.92,26.92,0,0,0-5.9-2.53,22.2,22.2,0,0,0-6.21-.92,18.28,18.28,0,0,0-8.28,1.81,13.83,13.83,0,0,0-5.6,4.9A12.9,12.9,0,0,0,195.13,36.56Z"/><path class="cls-1" d="M249.17,56.72V0h7.28V37l26.06-20.54h11L271.93,33.11l21.84,23.61H283.66l-17.55-19-9.66,7.43V56.72Z"/><path class="cls-1" d="M47.7,29.24v2.6a2.7,2.7,0,0,1-2.7,2.7H29a5.3,5.3,0,0,1-3.51-1.34l0,0L11.3,19.05A18.05,18.05,0,0,0,8,16.44L0,11.52l7.52,0a18,18,0,0,1,12.81,5.27L27,23.42a10.65,10.65,0,0,0,7.53,3.12H45A2.7,2.7,0,0,1,47.7,29.24Z"/></g></g></svg>