<svg xmlns="http://www.w3.org/2000/svg" viewBox="0 0 36 45" x="0px" y="0px"><title>Монтажная область 51</title><circle cx="18" cy="15.75" r="4.5"/><path d="M18,22.5a6.77,6.77,0,0,0-6.75,6.75V36h13.5V29.25A6.77,6.77,0,0,0,18,22.5Z"/><circle cx="29.25" cy="13.5" r="4.5"/><path d="M29.25,20.25a6.71,6.71,0,0,0-5.15,2.4,8.92,8.92,0,0,1,2.9,6.6v4.5h9V27A6.76,6.76,0,0,0,29.25,20.25Z"/><circle cx="6.75" cy="13.5" r="4.5"/><path d="M6.75,20.25A6.76,6.76,0,0,0,0,27v6.75H9v-4.5a8.92,8.92,0,0,1,2.9-6.6A6.71,6.71,0,0,0,6.75,20.25Z"/><polygon points="14.91 9.51 18 7.89 21.09 9.51 20.5 6.07 23 3.63 19.55 3.13 18 0 16.45 3.13 13 3.63 15.5 6.07 14.91 9.51"/><text x="0" y="51" fill="#000000" font-size="5px" font-weight="bold" font-family="'Helvetica Neue', Helvetica, Arial-Unicode, Arial, Sans-serif">Created by Vadim Solomakhin</text><text x="0" y="56" fill="#000000" font-size="5px" font-weight="bold" font-family="'Helvetica Neue', Helvetica, Arial-Unicode, Arial, Sans-serif">from the Noun Project</text></svg>